<svg xmlns="http://www.w3.org/2000/svg" fill="none" aria-hidden="true" viewBox="0 0 28 28" class="tab-icon"><path fill="rgb(55, 80, 110)" d="M19.796 5.262a1.243 1.243 0 00-1.803-1.129 1.208 1.208 0 00-.428.385 5.749 5.749 0 00-6.126 3.885l-.63 1.89a15.888 15.888 0 01-3.788 6.125l-.761.753a.875.875 0 00.34 1.452l7.666 2.59a1.42 1.42 0 00-.097.508 1.488 1.488 0 002.905.429l3.037 1.015a.875.875 0 001.137-.954l-.149-1.059a15.752 15.752 0 01.648-7.184l.63-1.89a5.748 5.748 0 00-2.581-6.816zm.875 6.213l-.622 1.863a17.502 17.502 0 00-.76 7.64l-10.79-3.562a17.5 17.5 0 004.017-6.571l.595-1.882a3.99 3.99 0 017.569 2.52l-.01-.008z"></path></svg>